# xmcd
#
# Track frame offsets: 
#        150
#        11642
#        23437
#        37490
#        51172
#        63412
#        80360
#        95165
#        109512
#        122310
#        137267
#        148360
#        163332
#        178045
#        193720
#        208955
#
# Disc length: 2984 seconds
#
# Revision: 2
# Processed by: cddbd v1.4PL0 Copyright (c) Steve Scherf et al.
# Submitted via: ExactAudioCopy v0.90b3
#
DISCID=e60ba610
DTITLE=George Jones - 16 Biggest Hits
DYEAR=1998
DGENRE=Country
TTITLE0=A Picture Of Me (Without You)
TTITLE1=What My Woman Can't Do
TTITLE2=Ther Grand Tour
TTITLE3=These Days (I Barely Get By)
TTITLE4=The Door
TTITLE5=Bartender's Blues
TTITLE6=He Stopped Loving Her Today
TTITLE7=If Drinkin' Don't Kill Me (Her Memory Will)
TTITLE8=Still Doin' Time
TTITLE9=I Always Get Lucky With You
TTITLE10=She's My Rock
TTITLE11=Wine Colored Roses
TTITLE12=The Right Left Hand
TTITLE13=Radio Lover
TTITLE14=The King Is Gone (So Are You)
TTITLE15=Who's Gonna Fill Their Shoes
EXTD=\nYEAR: 1998  ID3G:   2
EXTT0=
EXTT1=
EXTT2=
EXTT3=
EXTT4=
EXTT5=
EXTT6=
EXTT7=
EXTT8=
EXTT9=
EXTT10=
EXTT11=
EXTT12=
EXTT13=
EXTT14=
EXTT15=
PLAYORDER=
